<svg xmlns="http://www.w3.org/2000/svg" viewBox="0 0 566.93 260.94"><defs><style>.a{fill:#fff;}</style></defs><path class="a" d="M250.67,73.88l.34.46C250.85,74.12,250.72,74,250.67,73.88Zm1.64,2.18.43.57ZM168.85,137.4,177.3,95c1.11-5.55,5.34-8.15,10.93-8.44,5-.27,9,2.5,7.4,7.74,0,0-5.28,26.9-5.49,27.91-3.68,18.26,16.91,15.2,16.91,15.2s8.08-40.84,8.41-42.53c2-10,21.55-12.12,18.26.11l-5.35,27.22c-3.68,18.26,16.91,15.2,16.91,15.2a20.13,20.13,0,0,0,5.12-1.1s-4-4.41-2.53-12l5.36-27.08c2.6-13.17,2.35-16.79-1.44-21.81l.23.3-.23-.3h0c-4-5.25-14.66-6.32-22.31-4.25a29,29,0,0,0-11.76,6c-1.32-9.48-21.84-8-27.93-5.66-7,2.72-10.29,5.66-10.29,5.66-2.47-8.68-17.58-5.22-17.58-5.22l-10,50.28C148.25,140.46,168.85,137.4,168.85,137.4ZM147.46,80.21c1.85,3.14-1.86-3.17,0,0ZM83.83,122.9c4.83,17.1,26.86,19.21,41.05,13.22,16.46-6.9,25.53-24.55,25.8-41.85a26.63,26.63,0,0,0-3.22-14.06C138.52,65,114.07,68.08,101.7,76.62,88,86.09,79.2,106.55,83.83,122.9Zm19.64-11.69c.46-8.4,3.31-18.9,10.83-23.74a12.69,12.69,0,0,1,11.2-1.32c4.12,1.71,5,6.64,4.72,10.6-.59,8.35-3.06,19.49-10.58,24.43-3.17,2.08-7.81,2.86-11.4,1.33C103.92,120.67,103.22,115.33,103.47,111.21ZM251,74.34l.45.59ZM26.32,92.52l.11-.23a.3.3,0,0,0,0,.08S26.34,92.48,26.32,92.52ZM54.5,99.21c-5.78,0-8.42-3.56-8.42-3.56a14.91,14.91,0,0,0-1.54,3.56s-5.18,14.49,8.66,14.44h4.4l-3.35,16.78c-8.06,4.11-23.46,5.18-29.89-5.11-5.58-9.45-2.2-23.42,2-32.8-.36.8-.66,1.46.07-.15s.41-.9,0-.08c8.13-17.92,32.14-24,46.3-9l.64.65.77-.51c3.26-2.17,7.26-5.19,8.69-9,1.65-4.38-2.45-8-5.81-10-8.49-5.18-19.08-6.1-28.77-5.13A51.79,51.79,0,0,0,4.84,92.18c-6.78,16.95-8.71,41.34,9.52,51.84,15.15,8.72,38.38,6.31,53.19-2a26.93,26.93,0,0,0,4.65-3.48L80,99.21Zm184.73,73.41c-2.62-1.42-.58-4.18,1.62-4.58,3.9-.69,8.37,1.19,11.08,3.88,1.86-2.11,4.38-5.49,3.09-7.79-2-3.58-8.74-4.18-12.51-3.91-7.07.5-14.7,4.07-15.64,11.73a8.23,8.23,0,0,0,3.83,8.37c3,1.79,7,1.66,9.86,3.55A2.91,2.91,0,0,1,241,188c-1,1.3-2.77,1.67-4.3,1.74-3.35.16-7.64-1.31-9.72-4-2.25,2.5-5.52,6.39-2.59,9.28,1.94,1.91,6.14,2.59,8.73,2.76,8.2.55,17.58-3.23,19.43-11.88.69-3.26,0-7-2.66-9.23C246.91,174.17,242.55,174.42,239.23,172.62Zm26.89,12.28,3-15.41h6.57c5.71,0,5-8.46,5-8.46h-9.91c.79-3.73,1.87-8.41-1.57-10.31s-9,.08-9,.08c1.79,1.58.9,5.19.9,5.19l-5.47,27.09c-.75,3.59-1.42,8.35.94,11.66,3.87,5.44,17.68,3.29,19.5-2.09a7.88,7.88,0,0,0-1.16-6.41C272,188.88,264.48,191.05,266.12,184.9ZM308,162.15c-7.26-3.93-25.67-2.47-21.79,9.42,3.65-2.59,18.1-6.46,15.33,2.3-9.1.15-21.46,1.8-23.44,12.43-.65,3.51.07,7.4,3.23,9.54,4.74,3.21,12.33,2,16.75-1.28,1.36,4.61,7.51,3.66,11,2.46-1.48-3-.6-7,.08-10.07s1.44-6.13,2.14-9.2C312.52,172.21,313.91,165.38,308,162.15Zm-9.64,24.53c-1.13,4.55-11.79,5.28-9.61-1.5,1.64-5.07,9-5.23,11.29-5.19ZM364.89,100c-5.45-4.67-13.5-4.21-19.64-7.54-4.82-2.62-1.07-7.73,3-8.46,7.18-1.28,15.44,2.2,20.44,7.16,3.44-3.89,8.09-10.14,5.71-14.39-3.69-6.62-16.13-7.72-23.1-7.23-13.05.92-27.13,7.52-28.87,21.69-.75,6.17,1.52,12.15,7.08,15.47s12.87,3.05,18.2,6.55c2.6,1.72,2.48,5.36.76,7.7s-5.1,3.08-7.92,3.21c-6.18.3-14.11-2.43-17.94-7.4-4.16,4.63-10.19,11.81-4.79,17.15,3.57,3.53,11.34,4.79,16.11,5.11,15.14,1,32.45-6,35.86-22C371.08,111.09,369.78,104.23,364.89,100ZM314,78.77c.41.67.79,1.3,0,0s-.44-.72,0,0c-7.93-13-28.06-10.63-39-3.29-12.7,8.54-18.51,24.72-17.86,39.57.71,16,12.74,24.09,27.91,24.24,7.07,0,14.89-1.25,20.81-5.38,6.56-4.34,5-11.12,1.51-17.1l-.56-1-.9.7c-6.28,5-21.32,12.32-27.17,2.46a17.29,17.29,0,0,1-2-10.68h37.56l.23-.64C317.88,99,318.83,86.77,314,78.77ZM299.31,96H278.8c1.36-5.85,5.21-11.75,11.72-12.39C298.72,82.8,300.41,89.14,299.31,96Zm-164,70.16c-6.39-3.48-22.61-2.19-19.19,8.31,3.21-2.28,15.94-5.7,13.51,2-8,.13-18.91,1.59-20.66,11-.57,3.11.06,6.54,2.85,8.43,4.17,2.83,10.86,1.78,14.75-1.13,1.2,4.06,6.62,3.23,9.69,2.16-1.3-2.66-.52-6.13.07-8.88s1.28-5.41,1.89-8.11C139.36,175,140.58,169,135.34,166.15Zm-8.49,21.64c-1,4-10.39,4.66-8.46-1.32,1.43-4.48,7.93-4.62,9.94-4.58Zm96.06-21.88c-4.87-8.26-18.17-6.59-24.9-1.95-7.45,5.14-12.23,16.26-9.72,25.14,2.63,9.29,14.62,10.44,22.33,7.18,9-3.74,13.89-13.33,14-22.73A14.38,14.38,0,0,0,222.91,165.91Zm-9.38,9c-.32,4.54-1.67,10.59-5.76,13.28a7,7,0,0,1-6.2.72c-2.35-1-2.73-3.9-2.59-6.14.25-4.56,1.8-10.27,5.89-12.9a6.88,6.88,0,0,1,6.09-.71C213.2,170.06,213.69,172.74,213.53,174.89ZM172,159.22c4.54-2.43,11.37-2.08,15.07,1.8.58.61,1.8,2.27,1.8,2.27s8.33-5.29,4.45-9.5c-6.36-6.9-19.22-5.95-26.78-2.06-9.41,4.85-14.64,15.06-16.27,25.16s2.14,19.71,13.11,21.83c6.6,1.28,25.67.27,20.83-11.24-.22-.52-1.08-1.93-1.08-1.93l-2.51,1.66c-3.7,2.44-10.53,4.17-15.17,1.2-5.11-3.27-4.2-10.67-2.72-15.9S167,161.91,172,159.22Zm50.89,6.69c1,1.71-1-1.72,0,0ZM106.17,190.78l6-30.36.36-2c1.14-8.6-8.44-7.09-8.44-7.09a10.74,10.74,0,0,0-2.69.57,7.5,7.5,0,0,1,1.33,6.33s-.66,3.34-1.56,7.84a17.38,17.38,0,0,0-2.44-.68,18.26,18.26,0,0,0-20.63,12c-2.66,7.68-.77,19.87,9.56,19.87a11.43,11.43,0,0,0,8.73-3.78c1.19,5.28,8.37,4.15,8.37,4.15a10.44,10.44,0,0,0,2.69-.58A7.52,7.52,0,0,1,106.17,190.78Zm-8.87-5.05c-1.19,3.66-12.12,6.85-11-3.79a9.88,9.88,0,0,1,11.53-8.78,6.85,6.85,0,0,1,1.82.54C98.81,178.16,97.59,184.86,97.3,185.73Z"/><path class="a" d="M461.71,177.17c2.49-.6,4.07-2.15,6.33-3.3s7.48-4.33,4.28-3.89-17.92,4.27-17.92,4.27c-2.8-.23-13.86-.28-13.86-.28-1.86.31,5.92,4.56,7.65,4.95S459.23,177.78,461.71,177.17Z"/><path class="a" d="M508.5,113.12l-.05.08-.06.19-.1.09-.27.46a27,27,0,0,0-.17,4.62c0,2.93-2,11.13-2,11.13s-1.18,11.42-2.33,11.19c-3.1-.62-4.85-14.12-2.75-19.31.89-2.22.62-5.79-1.47-7.78s-4-4.13-1.87-4.88,6.62-1,1.37-3.89c-3.75-2-4.28-4.12-4.28-5.14-12.31-1.36-31.18-1.76-36.76-.92-8,1.21-25.48,4.13-25.48,4.13s-5.46,3.54-4.27,12.12c.48,3.47,4.23,3.73,9.77,4.55s7,5.13,7.6,9.58a134.63,134.63,0,0,1,.42,21c-.45,4.71-.78,10.58,3.3,11.4s7.62-2.24,8.88-4.31,6.64-1.59,6.09-7.71c-.46-2.63,2.11-1,2.36,3.36.15,2.8-2.91,5.35-7.15,8.22s-5.92,8.24-11.67,9-9.81-1.06-8.76,1.65c.76.08,1.67.15,2.63.19,2.6.12,8.81-.26,10-.23s2.66.17,3.47.19a15.27,15.27,0,0,1,4.44-1.29c10.81-1.5,17.25-4.73,18.69-4.61s3.75,1.17,2.25,1.42-3.77,1.95-6.27,4.81c-1.54,1.76-8.87,7.94-10.15,8.49a59.87,59.87,0,0,1-11.75,1.83c-2.55-.06-6.14-.26-7.43-.81a13.29,13.29,0,0,1-1.72-1.21,14.27,14.27,0,0,0,9.63,6.45c7.27,1.21,17-5.2,16.95-3.8s-8.89,8.52-14.79,8-10.39-1.81-10.7,3.94a11.71,11.71,0,0,0,10.71,12c6.39.46,12.48.43,16.36-1.93a70.69,70.69,0,0,0,7.08-5.72l-.05,0,1.18-1a210.61,210.61,0,0,0,15.12-14.78A44,44,0,0,0,502,171.52c.42-1.6.82-3.43,1.2-5.4,0-.15,0-.3,0-.45.1-1.21,2.66-24.74,2.67-25.23.18-1.15.39-2.29.66-3.41.14.78.3,1.54.45,2.3,0,.45,0,.92,0,1.35.2.76.43,4.49,2.35,2.82s2-10.34,3-14.78,3.1-7.56,3.12-8.76c.45-3.14.14-8.48-2.49-9A4.73,4.73,0,0,0,508.5,113.12Zm-29.27,47.06c-4.48-2.92-13.52-9.31-10.11-8.44,0,0,13.41,6.18,14.71,10.12Zm10.71-43c-1-.4-5.73-3.15-8.26-4s-4.53.46-7.69,1.67c-1.95.75-4.66,3-7.05,4.86a55.11,55.11,0,0,1,7.78-1.22c4.17.1,12.23,2.12,9.9,3-.88.35-3.44.39-5.94.27A4.61,4.61,0,0,1,475.5,125c-2.09.35-5.34.18-6.57-1.36a2.5,2.5,0,0,1-.69-1.53,18.86,18.86,0,0,1-5.56,0c-3-.12-10.41-7-9.2-7.26,1.4-.27,4.75.35,9.07-1.25,3.47-1.29,13.2-4.47,15.4-4.59s3.93.66,8.26,3.73S491,117.59,489.94,117.2Zm19.64,3.31c.51-2,1.23-4.73,1.76-5.17.84-.7,1.84,2.43,1.87,3.49,0,0-1-1.25-1.44-.84-.17.79-2.22,15.54-3.4,18.33-.08-1,.42-10.75,1-13.39C509.47,122.13,509.53,121.32,509.58,120.51Z"/><path class="a" d="M417.4,220.55l.1,0c.21-1,2.9-.92,4.47,0,4.24,2.58,22.14,7.45,30.91,7.58,1.81.29,2.74-7.45-.48-11.08-5.86-6.59-15.25-6.46-25.24-21.06.61,2-1.52,11.42-9.14,15.13-8.33,4.3-34.37,15.84-51,24.32a161.66,161.66,0,0,0,48.22,20.39C416.3,238.21,417.4,220.55,417.4,220.55Z"/><path class="a" d="M520.75,195.76l-4.51-.46c-1-.1-4,5.44-8.71,11-9.23,10.77-15.9,13-17,11.84s4.16-2,13-11.4a35.9,35.9,0,0,0,8.08-13.31c-1.7-1.44-6.88-5-8.1-9-.65-2.24-1.37.58-1.65,1.13-3,5.89-8.79,10.06-13.5,14.4-8.18,7.54-18.68,12.62-13.63,28.67.69,4.91-11.27,4.16-17.19,4-10.28-.19-23.85-2.94-31.82-6.45-1.28-.56-2.37-1.08-3.31-1.55l-.33.2c-.83.45-2.27,16.1-3.5,31.86a177.15,177.15,0,0,0,38.82,4.26c43.28,0,82.25-15.39,109.52-40-8.21-4.39-32.6-17.1-43-22.51A34.8,34.8,0,0,0,520.75,195.76ZM429.2,242.87a4.77,4.77,0,1,1,4.88-4.66A4.77,4.77,0,0,1,429.2,242.87Z"/><path class="a" d="M474.74,122.8a1,1,0,0,0,1.18-.87,1.12,1.12,0,0,0-1.14-1,1,1,0,0,0-1.18.88A1.09,1.09,0,0,0,474.74,122.8Z"/><path class="a" d="M428.44,125.11a1.11,1.11,0,0,0,1.14,1,1,1,0,0,0,1.19-.88,1.12,1.12,0,0,0-1.15-1A1,1,0,0,0,428.44,125.11Z"/><path class="a" d="M433.56,147.19c2.41-2.41,3.06-9.37,3.17-14.15.06-2.74-2.27-2.12-3-2.83-.94-1,2.86.47,2.88-4.43h-.09c-.24.08-1.05.21-3.15-.43l-.41-.08a3.89,3.89,0,0,1-3.08,2.47c-1.78.07-4.46-.42-5.32-1.83-.73-1.19-.3-1.69-.15-1.82a18.13,18.13,0,0,0-2,.34,2.17,2.17,0,0,0-.24.29c-.48.69.6,2.49,1.56,2.9s-1.74-.27-3.74,1c-.74.46-.79,1.53-1.29,2.82s-1.39,2.59-1.75,3.71c-2.13,6.68,1.6,16.18,3,19.31C422.66,160.19,427.69,153.08,433.56,147.19Z"/><path class="a" d="M425.33,64.36c3.84-.65,3.23-.84,12-2,18.32-2.53,40.35,1.18,25.77.74a106.34,106.34,0,0,0-36.56,5.21c-1.55.44-3.49,4.91-3.49,4.91s2.2,9.6,3.22,15.4,4.16,7.63,4.16,7.63a61.85,61.85,0,0,1-8.31,2c-4.66.77-5.78-.43-8.61,1.76-.95.73-2.29,1.66-3.63,2.49A215.08,215.08,0,0,1,462,95.54c30.22-.16,44.24,4.16,46.13,4.8a.73.73,0,0,1,.21-.06c-.24-2-.53-11.87-.33-20.28,1.78-13.73,8.92-46.09,2.69-52.57a2.91,2.91,0,0,0-2.87-.53c-2.95,3.82-3.68,11.42-4.37,18.11-.43,4.19-1.25,8.85-2.15,9.15a1.76,1.76,0,0,1-1.85-.6c-.78-.85-.69-1.72-.81-2.8-1.26-10.88,2.25-21.36,4.15-30.85.25-1.72-2.23-3.88-4-5.12a6.2,6.2,0,0,0-3.58-1.08c-7.74,6.47-4.76,24.87-5.27,34.14,0,.42-.24,2.23-.85,2.35-.85-.22-1.23-.93-2.12-2.31-4.12-9-.9-26.86-.32-38.92-2.2-1.5-2.56-2.25-6.34-2.57-6,7.52-7,25.83-6,37.79-.54,1.26-1.2,1.53-1.91,1.24-2.2-.87-2.67-5.49-3-7.39a91.55,91.55,0,0,1,.7-34.76.7.7,0,0,0,0-.38.65.65,0,0,0-.29-.3A19.62,19.62,0,0,0,463.38.36a17.29,17.29,0,0,0-5.22-.27c-1.14.13-2.93.29-3.69,1.24a3.33,3.33,0,0,0-.54,1.32,109.62,109.62,0,0,0-2.6,13.3c-.54,4.39-.12,8.56.23,12.93q.57,7.26,1.16,14.51c0,.42.14,1.47-.65,1.67a.7.7,0,0,1-.52-.09c-2-1.3-3.16-3.65-4-5.8-2.13-5.45-2.82-11.48-3.33-17.26-.57-6.58-.67-13.16-.73-19.76a.81.81,0,0,0-.07-.41.79.79,0,0,0-.43-.28A13.77,13.77,0,0,0,436.11.8a36,36,0,0,0-4,.94,17.18,17.18,0,0,0-3.64,1.35,2.88,2.88,0,0,0-.59.38,1.51,1.51,0,0,0-.4.59A20.59,20.59,0,0,0,426,9.45c-.94,6.63.12,13.32,1.7,19.78.8,3.26,1.73,6.5,2.62,9.74q.69,2.47,1.31,5c.25,1,1.11,2.91.37,3.86a1.65,1.65,0,0,1-1.38.6c-2.25-.13-4.24-6.06-5-7.83a72.26,72.26,0,0,1-3.32-10.13,203.66,203.66,0,0,1-3.65-22.6c0-.37-.29-.7-1.27-.64a14.62,14.62,0,0,0-11.5,6.21C401.37,24.8,416.59,58.52,422,64,422.89,64.63,424.51,64.5,425.33,64.36Z"/><path class="a" d="M442.56,160.34c.55.26,1.1.59,1.53.82a2.53,2.53,0,0,0,.67.37s-.64-2.66-.69-2.85a14.86,14.86,0,0,0-3.41-5.63C439.92,153.94,437.6,158.08,442.56,160.34Z"/><path class="a" d="M424.55,119.5c-3.49-1.18-5.37-1.71-7-.22s-3.71,5.35-3.41,7c.54,2.91,2.79-3.71,7.66-3.89s9.48-.65,8.55-1.42S428,120.68,424.55,119.5Z"/><path class="a" d="M400.8,78.15a38.8,38.8,0,0,1,1.95,6.65c.95,4.69,2.35,19,2.35,19h0c.91-2.28,6.22-8.35,5.57-10.58-.36-1.25-1.48-5.77-3.3-13.21-.49-2-3.4-4.78-3.81-6.43-.8-3.29,1.24-3.53.68-6.35,0,0-.63-2.5-.65-2.51C400.87,56.92,399.82,50,398,42c-1.39-5.92-1.72-13.51-2.78-15.79-.63-1.43-1.24-2.94-2.56-2.74-1.49.23-1.64,2.8-2.1,3.69-4.83,12,7.19,37.35,10,49.73C400.64,77.46,400.75,77.94,400.8,78.15Z"/></svg>